<svg xmlns="http://www.w3.org/2000/svg">
    <defs>
        <symbol id="icon-notification" fill="none" viewBox="0 0 24 24" stroke="currentColor"
            aria-hidden="true">
            <path stroke-linecap="round" stroke-linejoin="round" stroke-width="2"
                d="M15 17h5l-1.405-1.405A2.032 2.032 0 0118 14.158V11a6.002 6.002 0 00-4-5.659V5a2 2 0 10-4 0v.341C7.67 6.165 6 8.388 6 11v3.159c0 .538-.214 1.055-.595 1.436L4 17h5m6 0v1a3 3 0 11-6 0v-1m6 0H9" />
        </symbol>

        <symbol id="icon-search" fill="none" viewBox="0 0 24 24" stroke="currentColor"
            aria-hidden="true">
            <path stroke-linecap="round" stroke-linejoin="round" stroke-width="2"
                d="M21 21l-6-6m2-5a7 7 0 11-14 0 7 7 0 0114 0z" />
        </symbol>

        <symbol id="icon-settings" fill="none" viewBox="0 0 24 24" stroke="currentColor" aria-hidden="true">
            <path stroke-linecap="round" stroke-linejoin="round" stroke-width="2" d="M10.325 4.317c.426-1.756 2.924-1.756 3.35 0a1.724 1.724 0 002.573 1.066c1.543-.94 3.31.826 2.37 2.37a1.724 1.724 0 001.065 2.572c1.756.426 1.756 2.924 0 3.35a1.724 1.724 0 00-1.066 2.573c.94 1.543-.826 3.31-2.37 2.37a1.724 1.724 0 00-2.572 1.065c-.426 1.756-2.924 1.756-3.35 0a1.724 1.724 0 00-2.573-1.066c-1.543.94-3.31-.826-2.37-2.37a1.724 1.724 0 00-1.065-2.572c-1.756-.426-1.756-2.924 0-3.35a1.724 1.724 0 001.066-2.573c-.94-1.543.826-3.31 2.37-2.37.996.608 2.296.07 2.572-1.065z"></path>
            <path stroke-linecap="round" stroke-linejoin="round" stroke-width="2" d="M15 12a3 3 0 11-6 0 3 3 0 016 0z"></path>
        </symbol>

        <symbol id="icon-home" fill="none" viewBox="0 0 24 24" stroke="currentColor">
            <path stroke-linecap="round" stroke-linejoin="round" stroke-width="2" d="M3 12l2-2m0 0l7-7 7 7M5 10v10a1 1 0 001 1h3m10-11l2 2m-2-2v10a1 1 0 01-1 1h-3m-6 0a1 1 0 001-1v-4a1 1 0 011-1h2a1 1 0 011 1v4a1 1 0 001 1m-6 0h6"></path>
        </symbol>

        <symbol id="icon-close" fill="none" viewBox="0 0 24 24" stroke="currentColor">
            <path stroke-linecap="round" stroke-linejoin="round" stroke-width="2" d="M6 18L18 6M6 6l12 12"></path>
        </symbol>

        <symbol id="icon-add" viewBox="0 0 24 24" stroke-width="2" stroke="currentColor" fill="none"
            stroke-linecap="round" stroke-linejoin="round">
            <path stroke="none" d="M0 0h24v24H0z" />
            <line x1="12" y1="5" x2="12" y2="19" />
            <line x1="5" y1="12" x2="19" y2="12" />
        </symbol>
        <symbol id="icon-dashboard" viewBox="0 0 24 24" stroke-width="2" stroke="currentColor" fill="none"
            stroke-linecap="round" stroke-linejoin="round">
            <path stroke="none" d="M0 0h24v24H0z" />
            <circle cx="12" cy="13" r="2" />
            <line x1="13.45" y1="11.55" x2="15.5" y2="9.5" />
            <path d="M6.4 20a9 9 0 1 1 11.2 0Z" />
        </symbol>
        <symbol id="icon-edit" viewBox="0 0 24 24" stroke-width="2" stroke="currentColor" fill="none"
            stroke-linecap="round" stroke-linejoin="round">
            <path stroke="none" d="M0 0h24v24H0z" />
            <path d="M4 20h4l10.5 -10.5a1.5 1.5 0 0 0 -4 -4l-10.5 10.5v4" />
            <line x1="13.5" y1="6.5" x2="17.5" y2="10.5" />
        </symbol>
    </defs>
</svg>
